# xmcd
#
# Track frame offsets:
#  150
#  22686
#  41026
#  71069
#  90552
#  128748
#  151145
#  173018
#  180885
#  209242
#  231617
#  259144
#
# Disc length: 3969 seconds
#
# Revision: 2
# Processed by: cddbd v1.5.1PL0 Copyright (c) Steve Scherf et al.
# Submitted via: Collectorz.com Music Collector 6.9
#
DISCID=9d0f7f0c
DTITLE=lucinda williams - Live At De Handelsbeurs, Ghent, Belgium - Disc 2
DYEAR=2003
DGENRE=
TTITLE0=Overtime
TTITLE1=Metal Firecracker
TTITLE2=Lake Charles
TTITLE3=Pineola
TTITLE4=Joy
TTITLE5=American Dream
TTITLE6=Get Right With God
TTITLE7=Audience
TTITLE8=Sweet Old World
TTITLE9=Something About What Happens
TTITLE10=Words Fell
TTITLE11=Hard Time Killing Floor Blues
EXTD=
EXTT0=
EXTT1=
EXTT2=
EXTT3=
EXTT4=
EXTT5=
EXTT6=
EXTT7=
EXTT8=
EXTT9=
EXTT10=
EXTT11=
PLAYORDER=
